<svg xmlns="http://www.w3.org/2000/svg" viewBox="0 0 600 400" width="600" height="400">
<rect width="600" height="400" fill="#f8f9fa"/>

<g font-family="Arial, sans-serif" font-size="14">
  <text x="80" y="70" fill="#495057" font-weight="600">篩選條件：</text>

  <!-- Active chips (filled) -->
  <rect x="80" y="90" width="110" height="36" rx="18" fill="#0d6efd"/>
  <text x="105" y="114" fill="#ffffff" font-weight="600">設計</text>
  <circle cx="170" cy="108" r="9" fill="#ffffff" opacity="0.3"/>
  <line x1="166" y1="104" x2="174" y2="112" stroke="#ffffff" stroke-width="1.5"/>
  <line x1="174" y1="104" x2="166" y2="112" stroke="#ffffff" stroke-width="1.5"/>

  <rect x="200" y="90" width="130" height="36" rx="18" fill="#0d6efd"/>
  <text x="225" y="114" fill="#ffffff" font-weight="600">UX/UI</text>
  <circle cx="310" cy="108" r="9" fill="#ffffff" opacity="0.3"/>
  <line x1="306" y1="104" x2="314" y2="112" stroke="#ffffff" stroke-width="1.5"/>
  <line x1="314" y1="104" x2="306" y2="112" stroke="#ffffff" stroke-width="1.5"/>

  <!-- Inactive (outlined) -->
  <text x="80" y="180" fill="#495057" font-weight="600">更多標籤：</text>

  <rect x="80" y="200" width="110" height="36" rx="18" fill="#ffffff" stroke="#0d6efd" stroke-width="1.5"/>
  <text x="108" y="224" fill="#0d6efd">前端</text>

  <rect x="200" y="200" width="110" height="36" rx="18" fill="#ffffff" stroke="#adb5bd" stroke-width="1.5"/>
  <text x="228" y="224" fill="#495057">後端</text>

  <rect x="320" y="200" width="130" height="36" rx="18" fill="#ffffff" stroke="#adb5bd" stroke-width="1.5"/>
  <text x="345" y="224" fill="#495057">資料科學</text>

  <rect x="460" y="200" width="90" height="36" rx="18" fill="#ffffff" stroke="#adb5bd" stroke-width="1.5"/>
  <text x="482" y="224" fill="#495057">AI</text>

  <rect x="80" y="250" width="160" height="36" rx="18" fill="#ffffff" stroke="#adb5bd" stroke-width="1.5"/>
  <text x="108" y="274" fill="#495057">機器學習</text>

  <rect x="250" y="250" width="130" height="36" rx="18" fill="#ffffff" stroke="#adb5bd" stroke-width="1.5"/>
  <text x="282" y="274" fill="#495057">雲端服務</text>

  <rect x="390" y="250" width="110" height="36" rx="18" fill="#ffffff" stroke="#adb5bd" stroke-width="1.5"/>
  <text x="420" y="274" fill="#495057">行動</text>
</g>

</svg>