<svg xmlns="http://www.w3.org/2000/svg" viewBox="0 0 600 400" width="600" height="400">
<rect width="600" height="400" fill="#f8f9fa"/>

<g font-family="Arial, sans-serif" font-size="16">
  <!-- Results -->
  <rect x="80" y="60" width="440" height="50" rx="4" fill="#ffffff" stroke="#e9ecef"/>
  <text x="100" y="90" fill="#495057">第 21 - 30 項，共 247 項結果</text>
  <rect x="80" y="120" width="440" height="50" rx="4" fill="#ffffff" stroke="#e9ecef"/>
  <rect x="80" y="180" width="440" height="50" rx="4" fill="#ffffff" stroke="#e9ecef"/>

  <!-- Pagination controls -->
  <rect x="120" y="280" width="44" height="44" rx="4" fill="#ffffff" stroke="#dee2e6"/>
  <polygon points="146,292 146,312 134,302" fill="#6c757d"/>

  <rect x="170" y="280" width="44" height="44" rx="4" fill="#ffffff" stroke="#dee2e6"/>
  <text x="186" y="307" fill="#495057">1</text>

  <rect x="220" y="280" width="44" height="44" rx="4" fill="#ffffff" stroke="#dee2e6"/>
  <text x="236" y="307" fill="#495057">2</text>

  <rect x="270" y="280" width="44" height="44" rx="4" fill="#0d6efd"/>
  <text x="286" y="307" fill="#ffffff" font-weight="700">3</text>

  <rect x="320" y="280" width="44" height="44" rx="4" fill="#ffffff" stroke="#dee2e6"/>
  <text x="336" y="307" fill="#495057">4</text>

  <rect x="370" y="280" width="44" height="44" rx="4" fill="#ffffff" stroke="#dee2e6"/>
  <text x="380" y="307" fill="#495057">...</text>

  <rect x="420" y="280" width="44" height="44" rx="4" fill="#ffffff" stroke="#dee2e6"/>
  <text x="430" y="307" fill="#495057">25</text>

  <rect x="470" y="280" width="44" height="44" rx="4" fill="#ffffff" stroke="#dee2e6"/>
  <polygon points="484,292 484,312 496,302" fill="#6c757d"/>
</g>

</svg>