<svg xmlns="http://www.w3.org/2000/svg" viewBox="0 0 600 400" width="600" height="400">
<rect width="600" height="400" fill="#f8f9fa"/>

<g font-family="Arial, sans-serif" font-size="15">
  <rect x="80" y="60" width="440" height="60" rx="6" fill="#ffffff" stroke="#e9ecef"/>
  <text x="100" y="96" fill="#212529" font-weight="600">深色模式</text>
  <rect x="440" y="78" width="60" height="30" rx="15" fill="#0d6efd"/>
  <circle cx="485" cy="93" r="12" fill="#ffffff"/>

  <rect x="80" y="140" width="440" height="60" rx="6" fill="#ffffff" stroke="#e9ecef"/>
  <text x="100" y="176" fill="#212529" font-weight="600">電子郵件通知</text>
  <rect x="440" y="158" width="60" height="30" rx="15" fill="#0d6efd"/>
  <circle cx="485" cy="173" r="12" fill="#ffffff"/>

  <rect x="80" y="220" width="440" height="60" rx="6" fill="#ffffff" stroke="#e9ecef"/>
  <text x="100" y="256" fill="#212529" font-weight="600">推播通知</text>
  <rect x="440" y="238" width="60" height="30" rx="15" fill="#ced4da"/>
  <circle cx="455" cy="253" r="12" fill="#ffffff"/>

  <rect x="80" y="300" width="440" height="60" rx="6" fill="#ffffff" stroke="#e9ecef"/>
  <text x="100" y="336" fill="#212529" font-weight="600">自動儲存</text>
  <rect x="440" y="318" width="60" height="30" rx="15" fill="#ced4da"/>
  <circle cx="455" cy="333" r="12" fill="#ffffff"/>
</g>

</svg>